<?xml version="1.0" encoding="UTF-8" standalone="no"?>
<svg
   xmlns:dc="http://purl.org/dc/elements/1.1/"
   xmlns:cc="http://creativecommons.org/ns#"
   xmlns:rdf="http://www.w3.org/1999/02/22-rdf-syntax-ns#"
   xmlns:svg="http://www.w3.org/2000/svg"
   xmlns="http://www.w3.org/2000/svg"
   xmlns:sodipodi="http://sodipodi.sourceforge.net/DTD/sodipodi-0.dtd"
   xmlns:inkscape="http://www.inkscape.org/namespaces/inkscape"
   width="89.653mm"
   height="29.827mm"
   version="1.1"
   viewBox="0 0 89.653 29.827"
   id="svg58"
   sodipodi:docname="smr-robot-logo-ex.svg"
   inkscape:version="1.0.2 (1.0.2+r75+1)">
  <metadata
     id="metadata64">
    <rdf:RDF>
      <cc:Work
         rdf:about="">
        <dc:format>image/svg+xml</dc:format>
        <dc:type
           rdf:resource="http://purl.org/dc/dcmitype/StillImage" />
      </cc:Work>
    </rdf:RDF>
  </metadata>
  <defs
     id="defs62" />
  <sodipodi:namedview
     pagecolor="#ffffff"
     bordercolor="#666666"
     borderopacity="1"
     objecttolerance="10"
     gridtolerance="10"
     guidetolerance="10"
     inkscape:pageopacity="0"
     inkscape:pageshadow="2"
     inkscape:window-width="1613"
     inkscape:window-height="995"
     id="namedview60"
     showgrid="false"
     inkscape:zoom="2.7024174"
     inkscape:cx="149.42653"
     inkscape:cy="111.15916"
     inkscape:window-x="67"
     inkscape:window-y="27"
     inkscape:window-maximized="1"
     inkscape:current-layer="g34"
     inkscape:document-rotation="0" />
  <g
     transform="translate(-3.4197 -.21129)"
     id="g24">
    <g
       transform="matrix(.70988 0 0 .70988 .99213 .061301)"
       id="g22">
      <path
         transform="translate(-.019684 .74046)"
         d="m28.575 31.221h-9.2604v4.4979l-15.875-15.875 15.875-15.875v4.4983h28.31l11.377 11.377-11.377 11.377z"
         fill="#368ba1"
         id="path2" />
      <path
         d="m20.618 7.8842v-2.3812h17.992v-5.2917l7.6729 7.6729z"
         fill="#c3c3c3"
         id="path4" />
      <path
         d="m20.618 33.284h25.665l-7.6729 7.6729v-5.2917h-17.992z"
         fill="#c3c3c3"
         id="path6" />
      <g
         transform="matrix(1.0479 0 0 1.0479 -10.462 3.0703)"
         fill="#f8ffff"
         style="font-variant-caps:normal;font-variant-east-asian:normal;font-variant-ligatures:normal;font-variant-numeric:normal;shape-inside:url(#rect1544-3);white-space:pre"
         aria-label="MATRIX"
         id="g20">
        <path
           d="m17.62 12.973h2.5321l1.757 4.1289 1.7673-4.1289h2.527v7.7153h-1.881v-5.643l-1.7777 4.1599h-1.2609l-1.7777-4.1599v5.643h-1.8862z"
           style="font-variant-caps:normal;font-variant-east-asian:normal;font-variant-ligatures:normal;font-variant-numeric:normal"
           id="path8" />
        <path
           d="m32.844 19.282h-3.1109l-0.49092 1.4056h-1.9999l2.8577-7.7153h2.3719l2.8577 7.7153h-1.9999zm-2.6148-1.4314h2.1136l-1.0542-3.0696z"
           style="font-variant-caps:normal;font-variant-east-asian:normal;font-variant-ligatures:normal;font-variant-numeric:normal"
           id="path10" />
        <path
           d="m34.601 12.973h7.1107v1.5038h-2.558v6.2115h-1.9895v-6.2115h-2.5631z"
           style="font-variant-caps:normal;font-variant-east-asian:normal;font-variant-ligatures:normal;font-variant-numeric:normal"
           id="path12" />
        <path
           d="m45.561 16.394q0.62528 0 0.894-0.23254 0.27388-0.23254 0.27388-0.76481 0-0.5271-0.27388-0.75447-0.26872-0.22738-0.894-0.22738h-0.83716v1.9792zm-0.83716 1.3746v2.9197h-1.9895v-7.7153h3.0386q1.5244 0 2.2324 0.5116 0.71313 0.5116 0.71313 1.6175 0 0.76481-0.37207 1.2557-0.3669 0.49092-1.111 0.72347 0.40824 0.09302 0.72864 0.42374 0.32556 0.32556 0.65629 0.99218l1.08 2.1911h-2.1187l-0.94051-1.9172q-0.28422-0.57877-0.57877-0.79065-0.28939-0.21187-0.77514-0.21187z"
           style="font-variant-caps:normal;font-variant-east-asian:normal;font-variant-ligatures:normal;font-variant-numeric:normal"
           id="path14" />
        <path
           d="m50.879 12.973h1.9895v7.7153h-1.9895z"
           style="font-variant-caps:normal;font-variant-east-asian:normal;font-variant-ligatures:normal;font-variant-numeric:normal"
           id="path16" />
        <path
           d="m59.126 16.75 2.6768 3.9377h-2.0722l-1.8035-2.6355-1.788 2.6355h-2.0826l2.6768-3.9377-2.5735-3.7775h2.0774l1.6898 2.4856 1.6846-2.4856h2.0877z"
           style="font-variant-caps:normal;font-variant-east-asian:normal;font-variant-ligatures:normal;font-variant-numeric:normal"
           id="path18" />
      </g>
    </g>
  </g>
  <g
     transform="translate(-3.4197 -.21129)"
     id="g34">
    <g
       aria-label="SMR"
       id="text909"
       style="font-style:normal;font-variant:normal;font-weight:bold;font-stretch:normal;font-size:11.2889px;line-height:1.25;font-family:sans-serif;-inkscape-font-specification:'sans-serif, Bold';font-variant-ligatures:normal;font-variant-caps:normal;font-variant-numeric:normal;font-variant-east-asian:normal;fill:#368ba1;fill-opacity:1;stroke:none;stroke-width:0.264583">
      <path
         d="m 51.792811,11.383778 v 1.74184 q -0.677994,-0.303168 -1.322916,-0.457508 -0.644922,-0.154341 -1.218186,-0.154341 -0.760677,0 -1.124479,0.209462 -0.363802,0.209462 -0.363802,0.650434 0,0.330729 0.242534,0.518143 0.248047,0.181901 0.892969,0.314192 l 0.903993,0.181901 q 1.372526,0.275608 1.951302,0.837848 0.578776,0.562239 0.578776,1.598524 0,1.361502 -0.810286,2.028472 -0.804774,0.661458 -2.463932,0.661458 -0.782726,0 -1.570964,-0.148828 -0.788238,-0.148828 -1.576476,-0.440972 v -1.79145 q 0.788238,0.418924 1.521354,0.633898 0.738629,0.209462 1.422136,0.209462 0.694531,0 1.063845,-0.231511 0.369315,-0.23151 0.369315,-0.661458 0,-0.385851 -0.253559,-0.595312 -0.248047,-0.209462 -0.9977,-0.374827 l -0.821311,-0.181901 q -1.234722,-0.264583 -1.807986,-0.843359 -0.567752,-0.578776 -0.567752,-1.559939 0,-1.229211 0.79375,-1.890669 0.79375,-0.661458 2.282032,-0.661458 0.677994,0 1.394574,0.104731 0.71658,0.09922 1.482769,0.303168 z"
         style="font-style:normal;font-variant:normal;font-weight:bold;font-stretch:normal;font-size:11.2889px;font-family:sans-serif;-inkscape-font-specification:'sans-serif, Bold';font-variant-ligatures:normal;font-variant-caps:normal;font-variant-numeric:normal;font-variant-east-asian:normal;fill:#368ba1;fill-opacity:1;stroke-width:0.264583"
         id="path852" />
      <path
         d="m 54.201622,11.124707 h 2.700955 l 1.874132,4.40421 1.885156,-4.40421 h 2.695443 v 8.229644 H 61.350884 V 13.33508 l -1.89618,4.437283 H 58.109739 L 56.213558,13.33508 v 6.019271 h -2.011936 z"
         style="font-style:normal;font-variant:normal;font-weight:bold;font-stretch:normal;font-size:11.2889px;font-family:sans-serif;-inkscape-font-specification:'sans-serif, Bold';font-variant-ligatures:normal;font-variant-caps:normal;font-variant-numeric:normal;font-variant-east-asian:normal;fill:#368ba1;fill-opacity:1;stroke-width:0.264583"
         id="path854" />
      <path
         d="m 68.461562,14.773752 q 0.66697,0 0.953602,-0.248047 0.292144,-0.248047 0.292144,-0.815798 0,-0.56224 -0.292144,-0.804775 -0.286632,-0.242534 -0.953602,-0.242534 h -0.892969 v 2.111154 z m -0.892969,1.466233 v 3.114366 h -2.122179 v -8.229644 h 3.241146 q 1.626085,0 2.38125,0.545703 0.760677,0.545703 0.760677,1.725304 0,0.815798 -0.396875,1.339453 -0.391363,0.523655 -1.185113,0.771701 0.43546,0.09922 0.777214,0.451997 0.347266,0.347266 0.700043,1.058333 l 1.15204,2.337153 H 70.616814 L 69.613602,17.309342 Q 69.310433,16.691981 68.996241,16.465983 68.68756,16.239985 68.169418,16.239985 Z"
         style="font-style:normal;font-variant:normal;font-weight:bold;font-stretch:normal;font-size:11.2889px;font-family:sans-serif;-inkscape-font-specification:'sans-serif, Bold';font-variant-ligatures:normal;font-variant-caps:normal;font-variant-numeric:normal;font-variant-east-asian:normal;fill:#368ba1;fill-opacity:1;stroke-width:0.264583"
         id="path856" />
    </g>
  </g>
  <g
     transform="translate(-3.4197 -.21129)"
     id="g56">
    <g
       transform="translate(-10.191 -14.612)"
       fill="#368ba1"
       style="shape-inside:url(#rect900);white-space:pre"
       aria-label="ROBOTS"
       id="g54">
      <path
         d="m58.812 40.206q0.62528 0 0.894-0.23254 0.27388-0.23254 0.27388-0.76481 0-0.5271-0.27388-0.75447-0.26872-0.22738-0.894-0.22738h-0.83716v1.9792zm-0.83716 1.3746v2.9197h-1.9895v-7.7153h3.0386q1.5244 0 2.2324 0.5116 0.71313 0.5116 0.71313 1.6175 0 0.76481-0.37207 1.2557-0.3669 0.49092-1.111 0.72347 0.40824 0.09302 0.72864 0.42374 0.32556 0.32556 0.65629 0.99218l1.08 2.1911h-2.1187l-0.94051-1.9172q-0.28422-0.57877-0.57878-0.79065-0.28939-0.21187-0.77514-0.21187z"
         style="font-variant-caps:normal;font-variant-east-asian:normal;font-variant-ligatures:normal;font-variant-numeric:normal"
         id="path42" />
      <path
         d="m67.654 38.087q-0.9095 0-1.4108 0.67179-0.50126 0.67179-0.50126 1.8914 0 1.2144 0.50126 1.8862 0.50126 0.67179 1.4108 0.67179 0.91467 0 1.4159-0.67179 0.50126-0.67179 0.50126-1.8862 0-1.2196-0.50126-1.8914-0.50126-0.67179-1.4159-0.67179zm0-1.4418q1.8603 0 2.9145 1.0645t1.0542 2.9404q0 1.8707-1.0542 2.9352-1.0542 1.0645-2.9145 1.0645-1.8552 0-2.9145-1.0645-1.0542-1.0645-1.0542-2.9352 0-1.8758 1.0542-2.9404 1.0594-1.0645 2.9145-1.0645z"
         style="font-variant-caps:normal;font-variant-east-asian:normal;font-variant-ligatures:normal;font-variant-numeric:normal"
         id="path44" />
      <path
         d="m76.211 39.772q0.47025 0 0.71313-0.2067t0.24288-0.60978q0-0.39791-0.24288-0.60461-0.24288-0.21187-0.71313-0.21187h-1.1007v1.633zm0.06718 3.3745q0.59944 0 0.89917-0.25321 0.30489-0.25321 0.30489-0.76481 0-0.50126-0.29972-0.74931-0.29972-0.25321-0.90433-0.25321h-1.1679v2.0205zm1.85-2.775q0.64079 0.18603 0.99218 0.68729 0.3514 0.50126 0.3514 1.2299 0 1.1162-0.75447 1.664-0.75447 0.54777-2.2944 0.54777h-3.3021v-7.7153h2.9869q1.6071 0 2.3254 0.48576 0.72347 0.48576 0.72347 1.5555 0 0.56327-0.26355 0.96118-0.26355 0.39274-0.76481 0.58394z"
         style="font-variant-caps:normal;font-variant-east-asian:normal;font-variant-ligatures:normal;font-variant-numeric:normal"
         id="path46" />
      <path
         d="m84.707 38.087q-0.9095 0-1.4108 0.67179-0.50126 0.67179-0.50126 1.8914 0 1.2144 0.50126 1.8862 0.50126 0.67179 1.4108 0.67179 0.91467 0 1.4159-0.67179 0.50126-0.67179 0.50126-1.8862 0-1.2196-0.50126-1.8914-0.50126-0.67179-1.4159-0.67179zm0-1.4418q1.8603 0 2.9145 1.0645t1.0542 2.9404q0 1.8707-1.0542 2.9352-1.0542 1.0645-2.9145 1.0645-1.8552 0-2.9145-1.0645-1.0542-1.0645-1.0542-2.9352 0-1.8758 1.0542-2.9404 1.0594-1.0645 2.9145-1.0645z"
         style="font-variant-caps:normal;font-variant-east-asian:normal;font-variant-ligatures:normal;font-variant-numeric:normal"
         id="path48" />
      <path
         d="m89.254 36.785h7.1107v1.5038h-2.558v6.2115h-1.9895v-6.2115h-2.5631z"
         style="font-variant-caps:normal;font-variant-east-asian:normal;font-variant-ligatures:normal;font-variant-numeric:normal"
         id="path50" />
      <path
         d="m102.76 37.028v1.633q-0.63562-0.28422-1.2402-0.42891-0.60462-0.14469-1.142-0.14469-0.71313 0-1.0542 0.19637-0.34106 0.19637-0.34106 0.60978 0 0.31006 0.22738 0.48576 0.23254 0.17053 0.83715 0.29456l0.84749 0.17053q1.2867 0.25838 1.8293 0.78548t0.5426 1.4986q0 1.2764-0.75964 1.9017-0.75447 0.62012-2.3099 0.62012-0.7338 0-1.4728-0.13953t-1.4779-0.41341v-1.6795q0.73897 0.39274 1.4263 0.59428 0.69246 0.19637 1.3332 0.19637 0.65112 0 0.99735-0.21704 0.34623-0.21704 0.34623-0.62012 0-0.36173-0.23771-0.5581-0.23254-0.19637-0.93534-0.3514l-0.76997-0.17053q-1.1575-0.24805-1.695-0.79065-0.53226-0.5426-0.53226-1.4624 0-1.1524 0.74414-1.7725t2.1394-0.62012q0.63561 0 1.3074 0.09819 0.6718 0.09302 1.3901 0.28422z"
         style="font-variant-caps:normal;font-variant-east-asian:normal;font-variant-ligatures:normal;font-variant-numeric:normal"
         id="path52" />
    </g>
  </g>
</svg>
